<svg width="262" height="40" viewBox="0 0 262 40" fill="none" xmlns="http://www.w3.org/2000/svg">
<path fill-rule="evenodd" clip-rule="evenodd" d="M170.98 23.3092H257.943L261.933 0H174.975L170.98 23.3092ZM184.748 20.47L185.944 14.7997H199.992L202.275 12.9202L204.086 4.41871H179.094L175.687 20.47H184.748ZM193.545 11.3567H186.679L187.415 7.8617H194.281L193.541 11.3567H193.545ZM226.46 13.4841L227.144 20.474H218.082L217.606 14.1879H212.548L211.212 20.474H202.151L205.558 4.42271H230.547L229.195 10.7449L226.456 13.4841H226.46ZM220.278 10.0771L220.749 7.8617H213.883L213.268 10.7409H219.502L220.274 10.0731L220.278 10.0771ZM257.019 4.42271H232.03L228.623 20.474H253.612L257.019 4.42271ZM245.27 17.031H238.404L240.356 7.8617H247.222L245.27 17.031Z" fill="white"/>
<path d="M39.602 9.30632L41.5614 0.125H5.28005L0.333496 23.4302H13.4897L15.4291 14.3049H22.7709L23.4587 23.4302H36.6149L35.6232 13.2852L39.602 9.30632ZM26.6498 8.3386L25.5261 9.30632H16.4728L17.3645 5.12354H27.3336L26.6458 8.3346L26.6498 8.3386ZM169.832 0.125H133.551L128.604 23.4302H141.76L143.7 14.3049H151.041L151.729 23.4302H164.885L163.894 13.2852L167.873 9.30632L169.832 0.125ZM154.916 8.3346L153.793 9.30232H144.739L145.631 5.11954H155.6L154.912 8.3306L154.916 8.3346ZM92.5665 0.125H59.0123L54.0658 23.4302H87.62L90.907 20.703L94.7059 2.8562L92.5625 0.128999L92.5665 0.125ZM78.2387 18.4317H68.2696L71.1008 5.11954H81.0699L78.2387 18.4317ZM127.684 14.4048L128.808 9.07839H108.69L109.454 5.45944H130.26L131.407 0.132998H97.4451L92.4986 23.4382H126.461L127.584 18.1117H106.778L107.57 14.4128H127.688L127.684 14.4048ZM43.7088 0.125L38.7623 23.4302H51.9184L56.869 0.125H43.7128H43.7088Z" fill="white"/>
<path d="M57.9815 33.6265C57.9815 33.3986 58.0215 33.2027 58.0975 33.0467C58.1775 32.8908 58.2815 32.7628 58.4214 32.6628C58.5574 32.5629 58.7173 32.4909 58.8933 32.4469C59.0692 32.4029 59.2612 32.3789 59.4611 32.3789H64.1277C64.7076 32.3789 65.1874 32.4109 65.5713 32.4749C65.9552 32.5389 66.2671 32.6428 66.4991 32.7908C66.731 32.9387 66.8989 33.1347 66.9989 33.3746C67.0989 33.6145 67.1509 33.9145 67.1509 34.2704C67.1509 34.6542 67.0989 34.9542 66.9989 35.1701C66.8989 35.386 66.739 35.566 66.515 35.7139C66.3911 35.7899 66.3271 35.8619 66.3271 35.9379C66.3271 35.9978 66.3431 36.0378 66.3711 36.0658C66.3991 36.0938 66.4431 36.1178 66.4951 36.1378C66.807 36.2698 67.0349 36.4617 67.1789 36.7096C67.3228 36.9576 67.3948 37.3095 67.3948 37.7613C67.3948 38.2132 67.3428 38.5451 67.2348 38.821C67.1269 39.0969 66.9629 39.3209 66.739 39.4888C66.515 39.6568 66.2351 39.7727 65.8992 39.8407C65.5633 39.9087 65.1594 39.9407 64.6916 39.9407H59.4571C59.2572 39.9407 59.0692 39.9167 58.8893 39.8727C58.7133 39.8287 58.5534 39.7567 58.4174 39.6568C58.2815 39.5568 58.1735 39.4288 58.0935 39.2689C58.0175 39.1089 57.9775 38.917 57.9775 38.6971V33.6265H57.9815ZM64.2477 35.362C64.4836 35.362 64.6676 35.3101 64.7916 35.2101C64.9155 35.1101 64.9795 34.9262 64.9795 34.6582C64.9795 34.3903 64.9155 34.1864 64.7916 34.0864C64.6636 33.9864 64.4836 33.9345 64.2477 33.9345H60.6008C60.4528 33.9345 60.3448 33.9624 60.2769 34.0144C60.2089 34.0664 60.1769 34.1584 60.1769 34.2943V34.9821C60.1769 35.1221 60.2089 35.2221 60.2769 35.2781C60.3448 35.334 60.4528 35.362 60.6008 35.362H64.2477ZM60.6048 36.8056C60.4568 36.8056 60.3488 36.8336 60.2809 36.8856C60.2129 36.9376 60.1809 37.0295 60.1809 37.1615V37.9493C60.1809 38.0892 60.2129 38.1892 60.2809 38.2452C60.3488 38.3012 60.4568 38.3292 60.6048 38.3292H64.3077C64.6476 38.3292 64.8835 38.2652 65.0075 38.1412C65.1314 38.0133 65.1954 37.8213 65.1954 37.5614C65.1954 37.2855 65.1315 37.0935 64.9995 36.9776C64.8675 36.8616 64.6396 36.8056 64.3037 36.8056H60.6048Z" fill="white"/>
<path d="M74.5766 39.2728C74.5766 39.4887 74.5326 39.6527 74.4446 39.7687C74.3567 39.8846 74.2047 39.9406 73.9888 39.9406H72.9211C72.7052 39.9406 72.5532 39.8806 72.4612 39.7567C72.3692 39.6327 72.3213 39.4647 72.3213 39.2528V37.5853C72.3213 37.4133 72.2693 37.2654 72.1653 37.1414L68.9103 33.4505C68.8303 33.3625 68.7583 33.2706 68.6983 33.1786C68.6383 33.0866 68.6104 32.9866 68.6104 32.8827C68.6104 32.7267 68.6623 32.6067 68.7703 32.5148C68.8783 32.4268 69.0262 32.3828 69.2222 32.3828H70.2339C70.4138 32.3828 70.5538 32.4108 70.6617 32.4668C70.7697 32.5228 70.8737 32.6067 70.9777 32.7187L73.233 35.286C73.293 35.3539 73.341 35.3979 73.377 35.4179C73.4129 35.4419 73.4489 35.4499 73.4889 35.4499C73.5289 35.4499 73.5649 35.4379 73.6009 35.4179C73.6369 35.3979 73.6849 35.3499 73.7448 35.286L75.9362 32.7187C76.0322 32.6067 76.1361 32.5228 76.2481 32.4668C76.3601 32.4108 76.504 32.3828 76.68 32.3828H77.6797C77.8716 32.3828 78.0196 32.4268 78.1236 32.5148C78.2275 32.6027 78.2795 32.7267 78.2795 32.8827C78.2795 32.9866 78.2515 33.0866 78.1956 33.1786C78.1396 33.2706 78.0716 33.3625 77.9916 33.4505L74.7246 37.1414C74.6646 37.2094 74.6246 37.2774 74.6086 37.3454C74.5886 37.4173 74.5806 37.4933 74.5806 37.5733V39.2728H74.5766Z" fill="white"/>
<path d="M86.2132 36.263C86.2132 36.7068 86.2372 37.0547 86.2812 37.3067C86.3252 37.5586 86.4372 37.7505 86.6211 37.8785C86.8011 38.0065 87.073 38.0864 87.4369 38.1184C87.8008 38.1464 88.2966 38.1624 88.9284 38.1624H92.9193C93.1272 38.1624 93.2912 38.2064 93.4071 38.2944C93.5231 38.3824 93.5831 38.5343 93.5831 38.7503V39.0822C93.5831 39.2661 93.5391 39.4181 93.4551 39.538C93.3711 39.658 93.1952 39.75 92.9313 39.8179C92.6673 39.8859 92.2915 39.9299 91.7956 39.9579C91.3037 39.9819 90.6479 39.9979 89.8322 39.9979H89.0204C88.2806 39.9979 87.6408 39.9819 87.101 39.9459C86.5611 39.9099 86.1053 39.8459 85.7294 39.746C85.3535 39.646 85.0456 39.51 84.8136 39.3421C84.5817 39.1741 84.3978 38.9502 84.2698 38.6743C84.1378 38.3984 84.0539 38.0665 84.0099 37.6786C83.9659 37.2907 83.9419 36.8268 83.9419 36.295V36.119C83.9419 35.5792 83.9659 35.1073 84.0139 34.7074C84.0619 34.3075 84.1538 33.9676 84.2858 33.6837C84.4178 33.4038 84.6057 33.1719 84.8416 32.9959C85.0776 32.82 85.3855 32.68 85.7654 32.5841C86.1413 32.4881 86.5971 32.4201 87.133 32.3841C87.6648 32.3481 88.2966 32.3281 89.0244 32.3281H89.8362C90.6519 32.3281 91.3037 32.3401 91.7996 32.3601C92.2915 32.3801 92.6713 32.4241 92.9353 32.4881C93.1992 32.5521 93.3711 32.64 93.4591 32.76C93.5431 32.88 93.5871 33.0399 93.5871 33.2399V33.5278C93.5871 33.7437 93.5271 33.8957 93.4111 33.9836C93.2952 34.0716 93.1312 34.1156 92.9233 34.1156H88.9324C88.3046 34.1156 87.8048 34.1356 87.4409 34.1716C87.077 34.2076 86.8051 34.2956 86.6251 34.4315C86.4412 34.5675 86.3292 34.7714 86.2852 35.0433C86.2412 35.3153 86.2172 35.6831 86.2172 36.151V36.263H86.2132Z" fill="white"/>
<path d="M97.7184 39.2729C97.7184 39.4808 97.6744 39.6448 97.5864 39.7607C97.4984 39.8767 97.3465 39.9367 97.1305 39.9367H96.0869C95.8709 39.9367 95.719 39.8767 95.631 39.7607C95.543 39.6448 95.499 39.4808 95.499 39.2729V33.6265C95.499 33.3986 95.539 33.2027 95.615 33.0467C95.695 32.8908 95.7989 32.7628 95.9389 32.6628C96.0749 32.5629 96.2348 32.4909 96.4108 32.4469C96.5867 32.4029 96.7786 32.3789 96.9786 32.3789H101.313C101.869 32.3789 102.349 32.4069 102.753 32.4669C103.157 32.5269 103.489 32.6348 103.749 32.7948C104.009 32.9547 104.2 33.1747 104.324 33.4626C104.452 33.7465 104.512 34.1184 104.512 34.5703V34.9701C104.512 35.414 104.412 35.7539 104.216 35.9859C104.021 36.2178 103.773 36.4057 103.477 36.5457C103.417 36.5777 103.373 36.6057 103.337 36.6297C103.305 36.6577 103.285 36.6936 103.285 36.7456C103.285 36.8056 103.305 36.8456 103.341 36.8696C103.377 36.8936 103.413 36.9096 103.453 36.9256C103.629 36.9856 103.785 37.0615 103.921 37.1535C104.053 37.2455 104.164 37.3694 104.252 37.5254C104.34 37.6814 104.408 37.8733 104.452 38.1012C104.496 38.3292 104.52 38.6091 104.52 38.937V39.2689C104.52 39.4768 104.476 39.6408 104.388 39.7567C104.3 39.8727 104.149 39.9327 103.933 39.9327H102.889C102.673 39.9327 102.521 39.8727 102.433 39.7567C102.345 39.6408 102.301 39.4768 102.301 39.2689V39.1449C102.301 38.833 102.281 38.5891 102.241 38.4171C102.201 38.2452 102.093 38.1132 101.925 38.0293C101.757 37.9453 101.493 37.8893 101.141 37.8693C100.789 37.8453 100.298 37.8373 99.6698 37.8373H98.1583C98.0183 37.8373 97.9103 37.8653 97.8343 37.9213C97.7584 37.9773 97.7224 38.0732 97.7224 38.2052V39.2729H97.7184ZM100.506 36.1938C100.861 36.1938 101.153 36.1818 101.377 36.1618C101.601 36.1418 101.781 36.0978 101.909 36.0338C102.041 35.9699 102.129 35.8819 102.177 35.7659C102.225 35.65 102.249 35.502 102.249 35.314V34.9022C102.249 34.7342 102.229 34.5903 102.193 34.4783C102.157 34.3663 102.073 34.2784 101.949 34.2184C101.821 34.1544 101.641 34.1104 101.405 34.0864C101.169 34.0624 100.849 34.0464 100.45 34.0464H98.1503C98.0103 34.0464 97.9023 34.0744 97.8263 34.1304C97.7504 34.1864 97.7144 34.2823 97.7144 34.4143V35.8019C97.7144 36.0618 97.8583 36.1898 98.1463 36.1898H100.506V36.1938Z" fill="white"/>
<path d="M111.31 39.998C110.59 39.998 109.97 39.982 109.442 39.954C108.915 39.926 108.471 39.862 108.103 39.77C107.735 39.6781 107.439 39.5461 107.215 39.3742C106.991 39.2022 106.815 38.9783 106.687 38.7024C106.563 38.4224 106.475 38.0825 106.431 37.6787C106.387 37.2748 106.363 36.7949 106.363 36.2391V36.0831C106.363 35.5273 106.387 35.0474 106.431 34.6435C106.475 34.2397 106.559 33.8998 106.687 33.6198C106.815 33.3399 106.991 33.116 107.215 32.948C107.443 32.7761 107.739 32.6481 108.103 32.5522C108.471 32.4602 108.915 32.4002 109.442 32.3682C109.97 32.3362 110.59 32.3242 111.31 32.3242H111.654C112.374 32.3242 112.993 32.3402 113.521 32.3682C114.049 32.3962 114.493 32.4602 114.861 32.5522C115.229 32.6441 115.525 32.7761 115.749 32.948C115.976 33.12 116.152 33.3439 116.276 33.6198C116.404 33.8958 116.488 34.2397 116.532 34.6435C116.576 35.0474 116.6 35.5273 116.6 36.0831V36.2391C116.6 36.7949 116.58 37.2748 116.532 37.6787C116.488 38.0825 116.404 38.4224 116.276 38.7024C116.152 38.9783 115.976 39.2062 115.749 39.3742C115.525 39.5461 115.225 39.6741 114.861 39.77C114.493 39.862 114.049 39.926 113.521 39.954C112.993 39.982 112.374 39.998 111.654 39.998H111.31ZM111.578 38.2545C112.23 38.2545 112.741 38.2345 113.113 38.1985C113.485 38.1625 113.761 38.0705 113.941 37.9306C114.121 37.7906 114.233 37.5827 114.273 37.3068C114.313 37.0308 114.333 36.659 114.333 36.1831V36.1271C114.333 35.6472 114.313 35.2674 114.273 34.9874C114.233 34.7115 114.121 34.4996 113.941 34.3596C113.757 34.2197 113.485 34.1317 113.113 34.0917C112.741 34.0557 112.23 34.0357 111.578 34.0357H111.39C110.73 34.0357 110.218 34.0557 109.85 34.0917C109.482 34.1277 109.21 34.2157 109.027 34.3596C108.843 34.5036 108.735 34.7115 108.695 34.9874C108.655 35.2674 108.635 35.6472 108.635 36.1271V36.1831C108.635 36.659 108.655 37.0308 108.695 37.3068C108.735 37.5827 108.847 37.7906 109.027 37.9306C109.206 38.0705 109.482 38.1585 109.85 38.1985C110.218 38.2345 110.73 38.2545 111.39 38.2545H111.578Z" fill="white"/>
<path d="M123.183 39.4407C123.115 39.6327 123.027 39.7647 122.911 39.8366C122.795 39.9086 122.635 39.9406 122.427 39.9406H120.927C120.72 39.9406 120.556 39.9046 120.44 39.8366C120.32 39.7647 120.232 39.6367 120.172 39.4407L118.192 33.3065C118.164 33.2266 118.14 33.1466 118.12 33.0746C118.1 33.0026 118.092 32.9346 118.092 32.8747C118.092 32.7107 118.152 32.5908 118.268 32.5068C118.384 32.4228 118.532 32.3828 118.7 32.3828H119.612C119.828 32.3828 119.988 32.4188 120.092 32.4948C120.196 32.5708 120.28 32.7227 120.348 32.9626L121.627 37.5533C121.655 37.6853 121.711 37.7532 121.795 37.7532C121.863 37.7532 121.919 37.6853 121.963 37.5533L123.531 32.9626C123.611 32.7347 123.711 32.5788 123.827 32.5028C123.943 32.4268 124.111 32.3868 124.33 32.3868H125.354C125.57 32.3868 125.73 32.4268 125.838 32.5108C125.946 32.5948 126.042 32.7427 126.122 32.9666L127.701 37.5573C127.745 37.6893 127.801 37.7572 127.869 37.7572C127.945 37.7572 128.001 37.6893 128.037 37.5573L129.317 32.9666C129.385 32.7307 129.473 32.5748 129.585 32.4988C129.697 32.4268 129.861 32.3868 130.085 32.3868H130.941C131.132 32.3868 131.284 32.4308 131.392 32.5188C131.5 32.6067 131.552 32.7267 131.552 32.8747C131.552 32.9346 131.544 33.0026 131.524 33.0746C131.504 33.1466 131.48 33.2266 131.452 33.3065L129.465 39.4407C129.405 39.6327 129.317 39.7647 129.197 39.8366C129.077 39.9086 128.917 39.9406 128.709 39.9406H127.21C127.002 39.9406 126.842 39.9046 126.726 39.8366C126.61 39.7647 126.522 39.6367 126.454 39.4407L124.986 35.3499C124.942 35.218 124.886 35.15 124.818 35.15C124.75 35.15 124.694 35.218 124.65 35.3499L123.195 39.4407H123.183Z" fill="white"/>
<path d="M143.233 38.9969C143.233 39.3248 143.141 39.5607 142.961 39.7127C142.781 39.8646 142.525 39.9406 142.201 39.9406H140.446C140.306 39.9406 140.186 39.9326 140.086 39.9126C139.986 39.8926 139.898 39.8646 139.818 39.8246C139.738 39.7846 139.67 39.7287 139.606 39.6647C139.542 39.5967 139.474 39.5167 139.402 39.4208L135.947 34.8421C135.879 34.7541 135.823 34.6861 135.775 34.6382C135.727 34.5902 135.671 34.5662 135.615 34.5662C135.559 34.5662 135.507 34.5862 135.471 34.6222C135.435 34.6581 135.415 34.7301 135.415 34.8341V39.2808C135.415 39.4967 135.371 39.6607 135.283 39.7767C135.195 39.8926 135.043 39.9486 134.827 39.9486H133.816C133.6 39.9486 133.448 39.8886 133.356 39.7647C133.264 39.6407 133.216 39.4727 133.216 39.2608V33.3345C133.216 33.0066 133.308 32.7707 133.488 32.6187C133.668 32.4668 133.924 32.3908 134.248 32.3908H136.047C136.187 32.3908 136.307 32.3988 136.403 32.4188C136.499 32.4388 136.587 32.4668 136.663 32.5068C136.743 32.5468 136.815 32.6027 136.879 32.6667C136.947 32.7347 137.015 32.8147 137.091 32.9107L140.502 37.4893C140.57 37.5773 140.626 37.6453 140.674 37.6933C140.722 37.7412 140.774 37.7652 140.834 37.7652C140.894 37.7652 140.942 37.7452 140.978 37.7093C141.014 37.6733 141.034 37.6013 141.034 37.4973V33.0506C141.034 32.8347 141.078 32.6707 141.165 32.5548C141.253 32.4388 141.405 32.3828 141.621 32.3828H142.633C142.849 32.3828 143.001 32.4428 143.093 32.5668C143.185 32.6907 143.233 32.8587 143.233 33.0706V38.9969Z" fill="white"/>
<path d="M159.028 37.2985C159.028 37.7863 158.996 38.2062 158.932 38.5501C158.868 38.894 158.708 39.1739 158.448 39.3899C158.188 39.6058 157.8 39.7618 157.28 39.8577C156.76 39.9537 156.045 40.0017 155.125 40.0017H154.493C153.753 40.0017 153.114 39.9817 152.578 39.9457C152.042 39.9097 151.582 39.8417 151.206 39.7458C150.826 39.6498 150.522 39.5138 150.282 39.3419C150.046 39.1699 149.862 38.942 149.731 38.6701C149.599 38.3942 149.511 38.0663 149.463 37.6744C149.415 37.2865 149.391 36.8266 149.391 36.3028V36.1268C149.391 35.587 149.415 35.1151 149.463 34.7152C149.511 34.3154 149.603 33.9755 149.735 33.6915C149.866 33.4116 150.054 33.1797 150.29 33.0037C150.526 32.8278 150.834 32.6878 151.214 32.5919C151.59 32.4959 152.046 32.4279 152.582 32.3919C153.114 32.3559 153.745 32.3359 154.473 32.3359H155.029C155.845 32.3359 156.497 32.3479 156.988 32.3679C157.48 32.3879 157.86 32.4319 158.124 32.4959C158.388 32.5599 158.56 32.6478 158.648 32.7678C158.736 32.8878 158.776 33.0477 158.776 33.2477V33.5036C158.776 33.7195 158.716 33.8715 158.6 33.9595C158.484 34.0474 158.32 34.0914 158.112 34.0914H154.345C153.713 34.0914 153.222 34.1114 152.862 34.1474C152.502 34.1834 152.234 34.2714 152.05 34.4073C151.866 34.5433 151.754 34.7472 151.71 35.0192C151.666 35.2911 151.642 35.663 151.642 36.1348V36.3788C151.642 36.8386 151.666 37.1985 151.71 37.4584C151.754 37.7184 151.866 37.9143 152.05 38.0423C152.23 38.1742 152.502 38.2542 152.862 38.2862C153.222 38.3182 153.717 38.3382 154.345 38.3382H154.977C155.421 38.3382 155.773 38.3302 156.029 38.3102C156.285 38.2902 156.477 38.2622 156.601 38.2222C156.724 38.1822 156.804 38.1262 156.832 38.0543C156.86 37.9823 156.876 37.8983 156.876 37.7943V37.3505C156.876 37.1505 156.756 37.0506 156.521 37.0506H154.585C154.369 37.0506 154.205 37.0066 154.085 36.9186C153.965 36.8306 153.909 36.6787 153.909 36.4627V36.1388C153.909 35.9229 153.969 35.7709 154.085 35.683C154.205 35.595 154.369 35.551 154.585 35.551H157.888C158.312 35.551 158.608 35.631 158.776 35.7829C158.948 35.9389 159.032 36.1788 159.032 36.5067V37.2985H159.028Z" fill="white"/>
<path d="M163.187 39.2729C163.187 39.4808 163.143 39.6448 163.055 39.7607C162.967 39.8767 162.815 39.9367 162.599 39.9367H161.555C161.339 39.9367 161.187 39.8767 161.099 39.7607C161.011 39.6448 160.967 39.4808 160.967 39.2729V33.6265C160.967 33.3986 161.007 33.2027 161.083 33.0467C161.163 32.8908 161.267 32.7628 161.407 32.6628C161.543 32.5629 161.703 32.4909 161.879 32.4469C162.055 32.4029 162.247 32.3789 162.447 32.3789H166.782C167.337 32.3789 167.817 32.4069 168.221 32.4669C168.625 32.5269 168.957 32.6348 169.217 32.7948C169.477 32.9547 169.669 33.1747 169.793 33.4626C169.921 33.7465 169.981 34.1184 169.981 34.5703V34.9701C169.981 35.414 169.881 35.7539 169.685 35.9859C169.489 36.2178 169.241 36.4057 168.945 36.5457C168.885 36.5777 168.841 36.6057 168.805 36.6297C168.773 36.6577 168.753 36.6936 168.753 36.7456C168.753 36.8056 168.773 36.8456 168.809 36.8696C168.845 36.8936 168.881 36.9096 168.921 36.9256C169.097 36.9856 169.253 37.0615 169.389 37.1535C169.521 37.2455 169.633 37.3694 169.721 37.5254C169.809 37.6814 169.877 37.8733 169.921 38.1012C169.965 38.3292 169.989 38.6091 169.989 38.937V39.2689C169.989 39.4768 169.945 39.6408 169.857 39.7567C169.769 39.8727 169.617 39.9327 169.401 39.9327H168.357C168.141 39.9327 167.989 39.8727 167.901 39.7567C167.813 39.6408 167.769 39.4768 167.769 39.2689V39.1449C167.769 38.833 167.749 38.5891 167.709 38.4171C167.669 38.2452 167.561 38.1132 167.393 38.0293C167.225 37.9453 166.962 37.8893 166.61 37.8693C166.258 37.8453 165.766 37.8373 165.138 37.8373H163.627C163.487 37.8373 163.379 37.8653 163.303 37.9213C163.227 37.9773 163.191 38.0732 163.191 38.2052V39.2729H163.187ZM165.974 36.1938C166.33 36.1938 166.622 36.1818 166.846 36.1618C167.069 36.1418 167.249 36.0978 167.377 36.0338C167.509 35.9699 167.597 35.8819 167.645 35.7659C167.693 35.65 167.717 35.502 167.717 35.314V34.9022C167.717 34.7342 167.697 34.5903 167.661 34.4783C167.625 34.3663 167.541 34.2784 167.417 34.2184C167.289 34.1544 167.109 34.1104 166.874 34.0864C166.638 34.0624 166.318 34.0464 165.918 34.0464H163.618C163.479 34.0464 163.371 34.0744 163.295 34.1304C163.219 34.1864 163.183 34.2823 163.183 34.4143V35.8019C163.183 36.0618 163.327 36.1898 163.615 36.1898H165.974V36.1938Z" fill="white"/>
<path d="M176.779 39.998C176.059 39.998 175.439 39.982 174.912 39.954C174.384 39.926 173.94 39.862 173.572 39.77C173.204 39.6781 172.908 39.5461 172.684 39.3742C172.46 39.2022 172.284 38.9783 172.156 38.7024C172.032 38.4224 171.944 38.0825 171.901 37.6787C171.857 37.2748 171.833 36.7949 171.833 36.2391V36.0831C171.833 35.5273 171.857 35.0474 171.901 34.6435C171.944 34.2397 172.028 33.8998 172.156 33.6198C172.284 33.3399 172.46 33.116 172.684 32.948C172.912 32.7761 173.208 32.6481 173.572 32.5522C173.94 32.4602 174.384 32.4002 174.912 32.3682C175.439 32.3362 176.059 32.3242 176.779 32.3242H177.123C177.843 32.3242 178.463 32.3402 178.99 32.3682C179.518 32.3962 179.962 32.4602 180.33 32.5522C180.698 32.6441 180.994 32.7761 181.218 32.948C181.446 33.12 181.622 33.3439 181.746 33.6198C181.874 33.8958 181.958 34.2397 182.002 34.6435C182.046 35.0474 182.07 35.5273 182.07 36.0831V36.2391C182.07 36.7949 182.05 37.2748 182.002 37.6787C181.958 38.0825 181.874 38.4224 181.746 38.7024C181.622 38.9783 181.446 39.2062 181.218 39.3742C180.994 39.5461 180.694 39.6741 180.33 39.77C179.962 39.862 179.518 39.926 178.99 39.954C178.463 39.982 177.843 39.998 177.123 39.998H176.779ZM177.047 38.2545C177.699 38.2545 178.211 38.2345 178.583 38.1985C178.954 38.1625 179.23 38.0705 179.41 37.9306C179.59 37.7906 179.702 37.5827 179.742 37.3068C179.782 37.0308 179.802 36.659 179.802 36.1831V36.1271C179.802 35.6472 179.782 35.2674 179.742 34.9874C179.702 34.7115 179.59 34.4996 179.41 34.3596C179.226 34.2197 178.954 34.1317 178.583 34.0917C178.211 34.0557 177.699 34.0357 177.047 34.0357H176.859C176.199 34.0357 175.687 34.0557 175.32 34.0917C174.952 34.1277 174.68 34.2157 174.496 34.3596C174.312 34.5036 174.204 34.7115 174.164 34.9874C174.124 35.2674 174.104 35.6472 174.104 36.1271V36.1831C174.104 36.659 174.124 37.0308 174.164 37.3068C174.204 37.5827 174.316 37.7906 174.496 37.9306C174.676 38.0705 174.952 38.1585 175.32 38.1985C175.687 38.2345 176.199 38.2545 176.859 38.2545H177.047Z" fill="white"/>
<path d="M191.094 33.0506C191.094 32.8427 191.138 32.6787 191.226 32.5628C191.314 32.4468 191.466 32.3868 191.682 32.3868H192.761C192.977 32.3868 193.129 32.4468 193.217 32.5628C193.305 32.6827 193.349 32.8427 193.349 33.0506V37.3853C193.349 37.9652 193.269 38.425 193.109 38.7689C192.949 39.1128 192.689 39.3768 192.326 39.5567C191.962 39.7367 191.49 39.8566 190.91 39.9126C190.33 39.9686 189.614 39.9966 188.771 39.9966H188.547C187.703 39.9966 186.987 39.9686 186.407 39.9166C185.827 39.8646 185.356 39.7487 184.996 39.5727C184.636 39.3968 184.376 39.1328 184.22 38.7889C184.06 38.445 183.98 37.9772 183.98 37.3814V33.0466C183.98 32.8387 184.024 32.6747 184.112 32.5588C184.2 32.4428 184.352 32.3828 184.568 32.3828H185.647C185.863 32.3828 186.015 32.4428 186.103 32.5588C186.191 32.6787 186.235 32.8387 186.235 33.0466V36.6936C186.235 37.0494 186.267 37.3294 186.331 37.5373C186.395 37.7452 186.507 37.8972 186.675 37.9972C186.843 38.0971 187.075 38.1611 187.371 38.1851C187.667 38.2131 188.051 38.2251 188.515 38.2251H188.859C189.326 38.2251 189.702 38.2131 189.994 38.1851C190.282 38.1611 190.51 38.0931 190.674 37.9892C190.838 37.8852 190.95 37.7332 191.006 37.5293C191.062 37.3254 191.094 37.0454 191.094 36.6896V33.0506Z" fill="white"/>
<path d="M200.644 32.3829C201.384 32.3829 201.991 32.4189 202.467 32.4869C202.943 32.5589 203.315 32.6908 203.583 32.8868C203.855 33.0827 204.039 33.3586 204.139 33.7105C204.239 34.0624 204.291 34.5183 204.291 35.0821V35.2821C204.291 35.8459 204.239 36.3018 204.139 36.6537C204.039 37.0056 203.855 37.2815 203.583 37.4774C203.311 37.6734 202.939 37.8053 202.467 37.8773C201.991 37.9493 201.384 37.9813 200.644 37.9813H198.097C197.957 37.9813 197.849 38.0093 197.773 38.0652C197.697 38.1212 197.661 38.2172 197.661 38.3492V39.2729C197.661 39.4888 197.617 39.6528 197.529 39.7687C197.441 39.8847 197.289 39.9407 197.073 39.9407H196.041C195.825 39.9407 195.673 39.8807 195.581 39.7567C195.489 39.6328 195.441 39.4648 195.441 39.2529V33.6265C195.441 33.3986 195.481 33.2027 195.557 33.0467C195.637 32.8908 195.741 32.7628 195.881 32.6628C196.017 32.5629 196.177 32.4909 196.353 32.4469C196.529 32.4029 196.721 32.3789 196.921 32.3789H200.644V32.3829ZM198.097 34.0544C197.957 34.0544 197.849 34.0824 197.773 34.1384C197.697 34.1944 197.661 34.2903 197.661 34.4223V35.9099C197.661 36.1698 197.805 36.2978 198.093 36.2978H200.26C200.676 36.2978 201.004 36.2858 201.248 36.2578C201.492 36.2338 201.676 36.1818 201.796 36.1058C201.92 36.0338 201.995 35.9259 202.027 35.7819C202.059 35.642 202.079 35.454 202.079 35.2261V35.1261C202.079 34.8982 202.063 34.7102 202.027 34.5663C201.995 34.4223 201.916 34.3103 201.796 34.2384C201.672 34.1624 201.492 34.1144 201.248 34.0864C201.004 34.0584 200.672 34.0464 200.26 34.0464H198.093V34.0544H198.097Z" fill="white"/>
</svg>
