<svg width="262" height="40" viewBox="0 0 262 40" fill="none" xmlns="http://www.w3.org/2000/svg">
<path fill-rule="evenodd" clip-rule="evenodd" d="M170.646 23.3092H257.609L261.6 0H174.641L170.646 23.3092ZM184.414 20.47L185.61 14.7997H199.658L201.941 12.9202L203.753 4.41871H178.76L175.353 20.47H184.414ZM193.212 11.3567H186.346L187.082 7.8617H193.948L193.208 11.3567H193.212ZM226.126 13.4841L226.81 20.474H217.749L217.273 14.1879H212.214L210.879 20.474H201.817L205.224 4.42271H230.213L228.861 10.7449L226.122 13.4841H226.126ZM219.944 10.0771L220.416 7.8617H213.55L212.934 10.7409H219.168L219.94 10.0731L219.944 10.0771ZM256.685 4.42271H231.697L228.29 20.474H253.278L256.685 4.42271ZM244.937 17.031H238.071L240.022 7.8617H246.888L244.937 17.031Z" fill="white"/>
<path d="M39.2685 9.30632L41.228 0.125H4.94655L0 23.4302H13.1562L15.0956 14.3049H22.4374L23.1252 23.4302H36.2814L35.2897 13.2852L39.2685 9.30632ZM26.3163 8.3386L25.1926 9.30632H16.1393L17.031 5.12354H27.0001L26.3123 8.3346L26.3163 8.3386ZM169.498 0.125H133.217L128.271 23.4302H141.427L143.366 14.3049H150.708L151.396 23.4302H164.552L163.56 13.2852L167.539 9.30632L169.498 0.125ZM154.583 8.3346L153.459 9.30232H144.406L145.298 5.11954H155.267L154.579 8.3306L154.583 8.3346ZM92.233 0.125H58.6789L53.7323 23.4302H87.2865L90.5735 20.703L94.3724 2.8562L92.229 0.128999L92.233 0.125ZM77.9052 18.4317H67.9361L70.7673 5.11954H80.7364L77.9052 18.4317ZM127.351 14.4048L128.474 9.07839H108.356L109.12 5.45944H129.926L131.074 0.132998H97.1116L92.1651 23.4382H126.127L127.251 18.1117H106.445L107.237 14.4128H127.355L127.351 14.4048ZM43.3753 0.125L38.4288 23.4302H51.5849L56.5355 0.125H43.3793H43.3753Z" fill="url(#paint0_linear_5570_2960)"/>
<path d="M57.648 33.6265C57.648 33.3986 57.688 33.2027 57.764 33.0467C57.844 32.8908 57.948 32.7628 58.0879 32.6628C58.2239 32.5629 58.3838 32.4909 58.5598 32.4469C58.7357 32.4029 58.9277 32.3789 59.1276 32.3789H63.7942C64.3741 32.3789 64.8539 32.4109 65.2378 32.4749C65.6217 32.5389 65.9336 32.6428 66.1656 32.7908C66.3975 32.9387 66.5654 33.1347 66.6654 33.3746C66.7654 33.6145 66.8174 33.9145 66.8174 34.2704C66.8174 34.6542 66.7654 34.9542 66.6654 35.1701C66.5654 35.386 66.4055 35.566 66.1816 35.7139C66.0576 35.7899 65.9936 35.8619 65.9936 35.9379C65.9936 35.9978 66.0096 36.0378 66.0376 36.0658C66.0656 36.0938 66.1096 36.1178 66.1616 36.1378C66.4735 36.2698 66.7014 36.4617 66.8454 36.7096C66.9893 36.9576 67.0613 37.3095 67.0613 37.7613C67.0613 38.2132 67.0093 38.5451 66.9013 38.821C66.7934 39.0969 66.6294 39.3209 66.4055 39.4888C66.1815 39.6568 65.9016 39.7727 65.5657 39.8407C65.2298 39.9087 64.8259 39.9407 64.3581 39.9407H59.1236C58.9237 39.9407 58.7357 39.9167 58.5558 39.8727C58.3798 39.8287 58.2199 39.7567 58.0839 39.6568C57.948 39.5568 57.84 39.4288 57.76 39.2689C57.684 39.1089 57.644 38.917 57.644 38.6971V33.6265H57.648ZM63.9142 35.362C64.1501 35.362 64.3341 35.3101 64.4581 35.2101C64.582 35.1101 64.646 34.9262 64.646 34.6582C64.646 34.3903 64.582 34.1864 64.4581 34.0864C64.3301 33.9864 64.1501 33.9345 63.9142 33.9345H60.2673C60.1193 33.9345 60.0114 33.9624 59.9434 34.0144C59.8754 34.0664 59.8434 34.1584 59.8434 34.2943V34.9821C59.8434 35.1221 59.8754 35.2221 59.9434 35.2781C60.0114 35.334 60.1193 35.362 60.2673 35.362H63.9142ZM60.2713 36.8056C60.1233 36.8056 60.0154 36.8336 59.9474 36.8856C59.8794 36.9376 59.8474 37.0295 59.8474 37.1615V37.9493C59.8474 38.0892 59.8794 38.1892 59.9474 38.2452C60.0154 38.3012 60.1233 38.3292 60.2713 38.3292H63.9742C64.3141 38.3292 64.55 38.2652 64.674 38.1412C64.798 38.0133 64.8619 37.8213 64.8619 37.5614C64.8619 37.2855 64.798 37.0935 64.666 36.9776C64.534 36.8616 64.3061 36.8056 63.9702 36.8056H60.2713Z" fill="white"/>
<path d="M74.2431 39.2728C74.2431 39.4887 74.1991 39.6527 74.1111 39.7687C74.0232 39.8846 73.8712 39.9406 73.6553 39.9406H72.5876C72.3717 39.9406 72.2197 39.8806 72.1277 39.7567C72.0358 39.6327 71.9878 39.4647 71.9878 39.2528V37.5853C71.9878 37.4133 71.9358 37.2654 71.8318 37.1414L68.5768 33.4505C68.4968 33.3625 68.4248 33.2706 68.3648 33.1786C68.3048 33.0866 68.2769 32.9866 68.2769 32.8827C68.2769 32.7267 68.3288 32.6067 68.4368 32.5148C68.5448 32.4268 68.6927 32.3828 68.8887 32.3828H69.9004C70.0803 32.3828 70.2203 32.4108 70.3283 32.4668C70.4362 32.5228 70.5402 32.6067 70.6442 32.7187L72.8995 35.286C72.9595 35.3539 73.0075 35.3979 73.0435 35.4179C73.0795 35.4419 73.1154 35.4499 73.1554 35.4499C73.1954 35.4499 73.2314 35.4379 73.2674 35.4179C73.3034 35.3979 73.3514 35.3499 73.4114 35.286L75.6027 32.7187C75.6987 32.6067 75.8027 32.5228 75.9146 32.4668C76.0266 32.4108 76.1705 32.3828 76.3465 32.3828H77.3462C77.5381 32.3828 77.6861 32.4268 77.7901 32.5148C77.894 32.6027 77.946 32.7267 77.946 32.8827C77.946 32.9866 77.918 33.0866 77.8621 33.1786C77.8061 33.2706 77.7381 33.3625 77.6581 33.4505L74.3911 37.1414C74.3311 37.2094 74.2911 37.2774 74.2751 37.3454C74.2551 37.4173 74.2471 37.4933 74.2471 37.5733V39.2728H74.2431Z" fill="white"/>
<path d="M85.8797 36.263C85.8797 36.7068 85.9037 37.0547 85.9477 37.3067C85.9917 37.5586 86.1037 37.7505 86.2876 37.8785C86.4676 38.0065 86.7395 38.0864 87.1034 38.1184C87.4673 38.1464 87.9631 38.1624 88.5949 38.1624H92.5858C92.7937 38.1624 92.9577 38.2064 93.0736 38.2944C93.1896 38.3824 93.2496 38.5343 93.2496 38.7503V39.0822C93.2496 39.2661 93.2056 39.4181 93.1216 39.538C93.0376 39.658 92.8617 39.75 92.5978 39.8179C92.3338 39.8859 91.958 39.9299 91.4621 39.9579C90.9702 39.9819 90.3144 39.9979 89.4987 39.9979H88.6869C87.9471 39.9979 87.3073 39.9819 86.7675 39.9459C86.2276 39.9099 85.7718 39.8459 85.3959 39.746C85.02 39.646 84.7121 39.51 84.4801 39.3421C84.2482 39.1741 84.0643 38.9502 83.9363 38.6743C83.8043 38.3984 83.7204 38.0665 83.6764 37.6786C83.6324 37.2907 83.6084 36.8268 83.6084 36.295V36.119C83.6084 35.5792 83.6324 35.1073 83.6804 34.7074C83.7284 34.3075 83.8203 33.9676 83.9523 33.6837C84.0843 33.4038 84.2722 33.1719 84.5081 32.9959C84.7441 32.82 85.052 32.68 85.4319 32.5841C85.8078 32.4881 86.2636 32.4201 86.7995 32.3841C87.3313 32.3481 87.9631 32.3281 88.6909 32.3281H89.5027C90.3184 32.3281 90.9702 32.3401 91.4661 32.3601C91.958 32.3801 92.3378 32.4241 92.6018 32.4881C92.8657 32.5521 93.0376 32.64 93.1256 32.76C93.2096 32.88 93.2536 33.0399 93.2536 33.2399V33.5278C93.2536 33.7437 93.1936 33.8957 93.0776 33.9836C92.9617 34.0716 92.7977 34.1156 92.5898 34.1156H88.5989C87.9711 34.1156 87.4713 34.1356 87.1074 34.1716C86.7435 34.2076 86.4716 34.2956 86.2916 34.4315C86.1077 34.5675 85.9957 34.7714 85.9517 35.0433C85.9077 35.3153 85.8837 35.6831 85.8837 36.151V36.263H85.8797Z" fill="white"/>
<path d="M97.3849 39.2729C97.3849 39.4808 97.3409 39.6448 97.2529 39.7607C97.1649 39.8767 97.013 39.9367 96.7971 39.9367H95.7534C95.5374 39.9367 95.3855 39.8767 95.2975 39.7607C95.2095 39.6448 95.1655 39.4808 95.1655 39.2729V33.6265C95.1655 33.3986 95.2055 33.2027 95.2815 33.0467C95.3615 32.8908 95.4654 32.7628 95.6054 32.6628C95.7414 32.5629 95.9013 32.4909 96.0773 32.4469C96.2532 32.4029 96.4452 32.3789 96.6451 32.3789H100.98C101.536 32.3789 102.016 32.4069 102.419 32.4669C102.823 32.5269 103.155 32.6348 103.415 32.7948C103.675 32.9547 103.867 33.1747 103.991 33.4626C104.119 33.7465 104.179 34.1184 104.179 34.5703V34.9701C104.179 35.414 104.079 35.7539 103.883 35.9859C103.687 36.2178 103.439 36.4057 103.143 36.5457C103.083 36.5777 103.039 36.6057 103.003 36.6297C102.971 36.6577 102.951 36.6936 102.951 36.7456C102.951 36.8056 102.971 36.8456 103.007 36.8696C103.043 36.8936 103.079 36.9096 103.119 36.9256C103.295 36.9856 103.451 37.0615 103.587 37.1535C103.719 37.2455 103.831 37.3694 103.919 37.5254C104.007 37.6814 104.075 37.8733 104.119 38.1012C104.163 38.3292 104.187 38.6091 104.187 38.937V39.2689C104.187 39.4768 104.143 39.6408 104.055 39.7567C103.967 39.8727 103.815 39.9327 103.599 39.9327H102.555C102.339 39.9327 102.187 39.8727 102.1 39.7567C102.012 39.6408 101.968 39.4768 101.968 39.2689V39.1449C101.968 38.833 101.948 38.5891 101.908 38.4171C101.868 38.2452 101.76 38.1132 101.592 38.0293C101.424 37.9453 101.16 37.8893 100.808 37.8693C100.456 37.8453 99.9641 37.8373 99.3363 37.8373H97.8248C97.6848 37.8373 97.5768 37.8653 97.5008 37.9213C97.4249 37.9773 97.3889 38.0732 97.3889 38.2052V39.2729H97.3849ZM100.172 36.1938C100.528 36.1938 100.82 36.1818 101.044 36.1618C101.268 36.1418 101.448 36.0978 101.576 36.0338C101.708 35.9699 101.796 35.8819 101.844 35.7659C101.892 35.65 101.916 35.502 101.916 35.314V34.9022C101.916 34.7342 101.896 34.5903 101.86 34.4783C101.824 34.3663 101.74 34.2784 101.616 34.2184C101.488 34.1544 101.308 34.1104 101.072 34.0864C100.836 34.0624 100.516 34.0464 100.116 34.0464H97.8168C97.6768 34.0464 97.5688 34.0744 97.4929 34.1304C97.4169 34.1864 97.3809 34.2823 97.3809 34.4143V35.8019C97.3809 36.0618 97.5248 36.1898 97.8128 36.1898H100.172V36.1938Z" fill="white"/>
<path d="M110.976 39.998C110.257 39.998 109.637 39.982 109.109 39.954C108.581 39.926 108.137 39.862 107.769 39.77C107.401 39.6781 107.105 39.5461 106.882 39.3742C106.658 39.2022 106.482 38.9783 106.354 38.7024C106.23 38.4224 106.142 38.0825 106.098 37.6787C106.054 37.2748 106.03 36.7949 106.03 36.2391V36.0831C106.03 35.5273 106.054 35.0474 106.098 34.6435C106.142 34.2397 106.226 33.8998 106.354 33.6198C106.482 33.3399 106.658 33.116 106.882 32.948C107.109 32.7761 107.405 32.6481 107.769 32.5522C108.137 32.4602 108.581 32.4002 109.109 32.3682C109.637 32.3362 110.257 32.3242 110.976 32.3242H111.32C112.04 32.3242 112.66 32.3402 113.188 32.3682C113.716 32.3962 114.159 32.4602 114.527 32.5522C114.895 32.6441 115.191 32.7761 115.415 32.948C115.643 33.12 115.819 33.3439 115.943 33.6198C116.071 33.8958 116.155 34.2397 116.199 34.6435C116.243 35.0474 116.267 35.5273 116.267 36.0831V36.2391C116.267 36.7949 116.247 37.2748 116.199 37.6787C116.155 38.0825 116.071 38.4224 115.943 38.7024C115.819 38.9783 115.643 39.2062 115.415 39.3742C115.191 39.5461 114.891 39.6741 114.527 39.77C114.159 39.862 113.716 39.926 113.188 39.954C112.66 39.982 112.04 39.998 111.32 39.998H110.976ZM111.244 38.2545C111.896 38.2545 112.408 38.2345 112.78 38.1985C113.152 38.1625 113.428 38.0705 113.608 37.9306C113.788 37.7906 113.899 37.5827 113.939 37.3068C113.979 37.0308 113.999 36.659 113.999 36.1831V36.1271C113.999 35.6472 113.979 35.2674 113.939 34.9874C113.899 34.7115 113.788 34.4996 113.608 34.3596C113.424 34.2197 113.152 34.1317 112.78 34.0917C112.408 34.0557 111.896 34.0357 111.244 34.0357H111.056C110.397 34.0357 109.885 34.0557 109.517 34.0917C109.149 34.1277 108.877 34.2157 108.693 34.3596C108.509 34.5036 108.401 34.7115 108.361 34.9874C108.321 35.2674 108.301 35.6472 108.301 36.1271V36.1831C108.301 36.659 108.321 37.0308 108.361 37.3068C108.401 37.5827 108.513 37.7906 108.693 37.9306C108.873 38.0705 109.149 38.1585 109.517 38.1985C109.885 38.2345 110.397 38.2545 111.056 38.2545H111.244Z" fill="white"/>
<path d="M122.849 39.4407C122.781 39.6327 122.693 39.7647 122.577 39.8366C122.461 39.9086 122.301 39.9406 122.094 39.9406H120.594C120.386 39.9406 120.222 39.9046 120.106 39.8366C119.986 39.7647 119.898 39.6367 119.838 39.4407L117.859 33.3065C117.831 33.2266 117.807 33.1466 117.787 33.0746C117.767 33.0026 117.759 32.9346 117.759 32.8747C117.759 32.7107 117.819 32.5908 117.935 32.5068C118.051 32.4228 118.199 32.3828 118.367 32.3828H119.278C119.494 32.3828 119.654 32.4188 119.758 32.4948C119.862 32.5708 119.946 32.7227 120.014 32.9626L121.294 37.5533C121.322 37.6853 121.378 37.7532 121.462 37.7532C121.53 37.7532 121.586 37.6853 121.63 37.5533L123.197 32.9626C123.277 32.7347 123.377 32.5788 123.493 32.5028C123.609 32.4268 123.777 32.3868 123.997 32.3868H125.021C125.237 32.3868 125.397 32.4268 125.505 32.5108C125.612 32.5948 125.708 32.7427 125.788 32.9666L127.368 37.5573C127.412 37.6893 127.468 37.7572 127.536 37.7572C127.612 37.7572 127.668 37.6893 127.704 37.5573L128.983 32.9666C129.051 32.7307 129.139 32.5748 129.251 32.4988C129.363 32.4268 129.527 32.3868 129.751 32.3868H130.607C130.799 32.3868 130.951 32.4308 131.059 32.5188C131.167 32.6067 131.219 32.7267 131.219 32.8747C131.219 32.9346 131.211 33.0026 131.191 33.0746C131.171 33.1466 131.147 33.2266 131.119 33.3065L129.131 39.4407C129.071 39.6327 128.984 39.7647 128.864 39.8366C128.744 39.9086 128.584 39.9406 128.376 39.9406H126.876C126.668 39.9406 126.508 39.9046 126.392 39.8366C126.276 39.7647 126.188 39.6367 126.12 39.4407L124.653 35.3499C124.609 35.218 124.553 35.15 124.485 35.15C124.417 35.15 124.361 35.218 124.317 35.3499L122.861 39.4407H122.849Z" fill="white"/>
<path d="M142.899 38.9969C142.899 39.3248 142.807 39.5607 142.627 39.7127C142.448 39.8646 142.192 39.9406 141.868 39.9406H140.112C139.972 39.9406 139.852 39.9326 139.752 39.9126C139.652 39.8926 139.564 39.8646 139.484 39.8246C139.404 39.7846 139.336 39.7287 139.272 39.6647C139.208 39.5967 139.14 39.5167 139.069 39.4208L135.614 34.8421C135.546 34.7541 135.49 34.6861 135.442 34.6382C135.394 34.5902 135.338 34.5662 135.282 34.5662C135.226 34.5662 135.174 34.5862 135.138 34.6222C135.102 34.6581 135.082 34.7301 135.082 34.8341V39.2808C135.082 39.4967 135.038 39.6607 134.95 39.7767C134.862 39.8926 134.71 39.9486 134.494 39.9486H133.482C133.266 39.9486 133.114 39.8886 133.022 39.7647C132.93 39.6407 132.882 39.4727 132.882 39.2608V33.3345C132.882 33.0066 132.974 32.7707 133.154 32.6187C133.334 32.4668 133.59 32.3908 133.914 32.3908H135.714C135.853 32.3908 135.973 32.3988 136.069 32.4188C136.165 32.4388 136.253 32.4668 136.329 32.5068C136.409 32.5468 136.481 32.6027 136.545 32.6667C136.613 32.7347 136.681 32.8147 136.757 32.9107L140.168 37.4893C140.236 37.5773 140.292 37.6453 140.34 37.6933C140.388 37.7412 140.44 37.7652 140.5 37.7652C140.56 37.7652 140.608 37.7452 140.644 37.7093C140.68 37.6733 140.7 37.6013 140.7 37.4973V33.0506C140.7 32.8347 140.744 32.6707 140.832 32.5548C140.92 32.4388 141.072 32.3828 141.288 32.3828H142.3C142.516 32.3828 142.667 32.4428 142.759 32.5668C142.851 32.6907 142.899 32.8587 142.899 33.0706V38.9969Z" fill="white"/>
<path d="M158.694 37.2985C158.694 37.7863 158.662 38.2062 158.598 38.5501C158.534 38.894 158.374 39.1739 158.114 39.3899C157.855 39.6058 157.467 39.7618 156.947 39.8577C156.427 39.9537 155.711 40.0017 154.791 40.0017H154.16C153.42 40.0017 152.78 39.9817 152.244 39.9457C151.708 39.9097 151.248 39.8417 150.873 39.7458C150.493 39.6498 150.189 39.5138 149.949 39.3419C149.713 39.1699 149.529 38.942 149.397 38.6701C149.265 38.3942 149.177 38.0663 149.129 37.6744C149.081 37.2865 149.057 36.8266 149.057 36.3028V36.1268C149.057 35.587 149.081 35.1151 149.129 34.7152C149.177 34.3154 149.269 33.9755 149.401 33.6915C149.533 33.4116 149.721 33.1797 149.957 33.0037C150.193 32.8278 150.501 32.6878 150.881 32.5919C151.256 32.4959 151.712 32.4279 152.248 32.3919C152.78 32.3559 153.412 32.3359 154.14 32.3359H154.695C155.511 32.3359 156.163 32.3479 156.655 32.3679C157.147 32.3879 157.527 32.4319 157.791 32.4959C158.054 32.5599 158.226 32.6478 158.314 32.7678C158.402 32.8878 158.442 33.0477 158.442 33.2477V33.5036C158.442 33.7195 158.382 33.8715 158.266 33.9595C158.15 34.0474 157.987 34.0914 157.779 34.0914H154.012C153.38 34.0914 152.888 34.1114 152.528 34.1474C152.168 34.1834 151.9 34.2714 151.716 34.4073C151.532 34.5433 151.42 34.7472 151.376 35.0192C151.332 35.2911 151.308 35.663 151.308 36.1348V36.3788C151.308 36.8386 151.332 37.1985 151.376 37.4584C151.42 37.7184 151.532 37.9143 151.716 38.0423C151.896 38.1742 152.168 38.2542 152.528 38.2862C152.888 38.3182 153.384 38.3382 154.012 38.3382H154.643C155.087 38.3382 155.439 38.3302 155.695 38.3102C155.951 38.2902 156.143 38.2622 156.267 38.2222C156.391 38.1822 156.471 38.1262 156.499 38.0543C156.527 37.9823 156.543 37.8983 156.543 37.7943V37.3505C156.543 37.1505 156.423 37.0506 156.187 37.0506H154.252C154.036 37.0506 153.872 37.0066 153.752 36.9186C153.632 36.8306 153.576 36.6787 153.576 36.4627V36.1388C153.576 35.9229 153.636 35.7709 153.752 35.683C153.872 35.595 154.036 35.551 154.252 35.551H157.555C157.979 35.551 158.274 35.631 158.442 35.7829C158.614 35.9389 158.698 36.1788 158.698 36.5067V37.2985H158.694Z" fill="white"/>
<path d="M162.853 39.2729C162.853 39.4808 162.809 39.6448 162.721 39.7607C162.633 39.8767 162.481 39.9367 162.265 39.9367H161.222C161.006 39.9367 160.854 39.8767 160.766 39.7607C160.678 39.6448 160.634 39.4808 160.634 39.2729V33.6265C160.634 33.3986 160.674 33.2027 160.75 33.0467C160.83 32.8908 160.934 32.7628 161.074 32.6628C161.21 32.5629 161.37 32.4909 161.546 32.4469C161.721 32.4029 161.913 32.3789 162.113 32.3789H166.448C167.004 32.3789 167.484 32.4069 167.888 32.4669C168.292 32.5269 168.623 32.6348 168.883 32.7948C169.143 32.9547 169.335 33.1747 169.459 33.4626C169.587 33.7465 169.647 34.1184 169.647 34.5703V34.9701C169.647 35.414 169.547 35.7539 169.351 35.9859C169.155 36.2178 168.907 36.4057 168.611 36.5457C168.551 36.5777 168.507 36.6057 168.471 36.6297C168.439 36.6577 168.42 36.6936 168.42 36.7456C168.42 36.8056 168.44 36.8456 168.475 36.8696C168.511 36.8936 168.547 36.9096 168.587 36.9256C168.763 36.9856 168.919 37.0615 169.055 37.1535C169.187 37.2455 169.299 37.3694 169.387 37.5254C169.475 37.6814 169.543 37.8733 169.587 38.1012C169.631 38.3292 169.655 38.6091 169.655 38.937V39.2689C169.655 39.4768 169.611 39.6408 169.523 39.7567C169.435 39.8727 169.283 39.9327 169.067 39.9327H168.024C167.808 39.9327 167.656 39.8727 167.568 39.7567C167.48 39.6408 167.436 39.4768 167.436 39.2689V39.1449C167.436 38.833 167.416 38.5891 167.376 38.4171C167.336 38.2452 167.228 38.1132 167.06 38.0293C166.892 37.9453 166.628 37.8893 166.276 37.8693C165.924 37.8453 165.432 37.8373 164.805 37.8373H163.293C163.153 37.8373 163.045 37.8653 162.969 37.9213C162.893 37.9773 162.857 38.0732 162.857 38.2052V39.2729H162.853ZM165.64 36.1938C165.996 36.1938 166.288 36.1818 166.512 36.1618C166.736 36.1418 166.916 36.0978 167.044 36.0338C167.176 35.9699 167.264 35.8819 167.312 35.7659C167.36 35.65 167.384 35.502 167.384 35.314V34.9022C167.384 34.7342 167.364 34.5903 167.328 34.4783C167.292 34.3663 167.208 34.2784 167.084 34.2184C166.956 34.1544 166.776 34.1104 166.54 34.0864C166.304 34.0624 165.984 34.0464 165.584 34.0464H163.285C163.145 34.0464 163.037 34.0744 162.961 34.1304C162.885 34.1864 162.849 34.2823 162.849 34.4143V35.8019C162.849 36.0618 162.993 36.1898 163.281 36.1898H165.64V36.1938Z" fill="white"/>
<path d="M176.446 39.998C175.726 39.998 175.106 39.982 174.578 39.954C174.05 39.926 173.606 39.862 173.239 39.77C172.871 39.6781 172.575 39.5461 172.351 39.3742C172.127 39.2022 171.951 38.9783 171.823 38.7024C171.699 38.4224 171.611 38.0825 171.567 37.6787C171.523 37.2748 171.499 36.7949 171.499 36.2391V36.0831C171.499 35.5273 171.523 35.0474 171.567 34.6435C171.611 34.2397 171.695 33.8998 171.823 33.6198C171.951 33.3399 172.127 33.116 172.351 32.948C172.579 32.7761 172.875 32.6481 173.239 32.5522C173.606 32.4602 174.05 32.4002 174.578 32.3682C175.106 32.3362 175.726 32.3242 176.446 32.3242H176.789C177.509 32.3242 178.129 32.3402 178.657 32.3682C179.185 32.3962 179.629 32.4602 179.997 32.5522C180.364 32.6441 180.66 32.7761 180.884 32.948C181.112 33.12 181.288 33.3439 181.412 33.6198C181.54 33.8958 181.624 34.2397 181.668 34.6435C181.712 35.0474 181.736 35.5273 181.736 36.0831V36.2391C181.736 36.7949 181.716 37.2748 181.668 37.6787C181.624 38.0825 181.54 38.4224 181.412 38.7024C181.288 38.9783 181.112 39.2062 180.884 39.3742C180.66 39.5461 180.36 39.6741 179.997 39.77C179.629 39.862 179.185 39.926 178.657 39.954C178.129 39.982 177.509 39.998 176.789 39.998H176.446ZM176.714 38.2545C177.365 38.2545 177.877 38.2345 178.249 38.1985C178.621 38.1625 178.897 38.0705 179.077 37.9306C179.257 37.7906 179.369 37.5827 179.409 37.3068C179.449 37.0308 179.469 36.659 179.469 36.1831V36.1271C179.469 35.6472 179.449 35.2674 179.409 34.9874C179.369 34.7115 179.257 34.4996 179.077 34.3596C178.893 34.2197 178.621 34.1317 178.249 34.0917C177.877 34.0557 177.365 34.0357 176.714 34.0357H176.526C175.866 34.0357 175.354 34.0557 174.986 34.0917C174.618 34.1277 174.346 34.2157 174.162 34.3596C173.978 34.5036 173.87 34.7115 173.83 34.9874C173.79 35.2674 173.77 35.6472 173.77 36.1271V36.1831C173.77 36.659 173.79 37.0308 173.83 37.3068C173.87 37.5827 173.982 37.7906 174.162 37.9306C174.342 38.0705 174.618 38.1585 174.986 38.1985C175.354 38.2345 175.866 38.2545 176.526 38.2545H176.714Z" fill="white"/>
<path d="M190.76 33.0506C190.76 32.8427 190.804 32.6787 190.892 32.5628C190.98 32.4468 191.132 32.3868 191.348 32.3868H192.428C192.644 32.3868 192.796 32.4468 192.884 32.5628C192.972 32.6827 193.016 32.8427 193.016 33.0506V37.3853C193.016 37.9652 192.936 38.425 192.776 38.7689C192.616 39.1128 192.356 39.3768 191.992 39.5567C191.628 39.7367 191.156 39.8566 190.576 39.9126C189.997 39.9686 189.281 39.9966 188.437 39.9966H188.213C187.369 39.9966 186.654 39.9686 186.074 39.9166C185.494 39.8646 185.022 39.7487 184.662 39.5727C184.302 39.3968 184.042 39.1328 183.886 38.7889C183.726 38.445 183.646 37.9772 183.646 37.3814V33.0466C183.646 32.8387 183.69 32.6747 183.778 32.5588C183.866 32.4428 184.018 32.3828 184.234 32.3828H185.314C185.53 32.3828 185.682 32.4428 185.77 32.5588C185.858 32.6787 185.902 32.8387 185.902 33.0466V36.6936C185.902 37.0494 185.934 37.3294 185.998 37.5373C186.062 37.7452 186.174 37.8972 186.342 37.9972C186.51 38.0971 186.742 38.1611 187.037 38.1851C187.333 38.2131 187.717 38.2251 188.181 38.2251H188.525C188.993 38.2251 189.369 38.2131 189.661 38.1851C189.949 38.1611 190.177 38.0931 190.341 37.9892C190.504 37.8852 190.616 37.7332 190.672 37.5293C190.728 37.3254 190.76 37.0454 190.76 36.6896V33.0506Z" fill="white"/>
<path d="M200.31 32.3829C201.05 32.3829 201.658 32.4189 202.134 32.4869C202.61 32.5589 202.982 32.6908 203.25 32.8868C203.521 33.0827 203.705 33.3586 203.805 33.7105C203.905 34.0624 203.957 34.5183 203.957 35.0821V35.2821C203.957 35.8459 203.905 36.3018 203.805 36.6537C203.705 37.0056 203.521 37.2815 203.25 37.4774C202.978 37.6734 202.606 37.8053 202.134 37.8773C201.658 37.9493 201.05 37.9813 200.31 37.9813H197.763C197.623 37.9813 197.515 38.0093 197.439 38.0652C197.363 38.1212 197.327 38.2172 197.327 38.3492V39.2729C197.327 39.4888 197.283 39.6528 197.195 39.7687C197.107 39.8847 196.955 39.9407 196.739 39.9407H195.708C195.492 39.9407 195.34 39.8807 195.248 39.7567C195.156 39.6328 195.108 39.4648 195.108 39.2529V33.6265C195.108 33.3986 195.148 33.2027 195.224 33.0467C195.304 32.8908 195.408 32.7628 195.548 32.6628C195.684 32.5629 195.844 32.4909 196.02 32.4469C196.196 32.4029 196.388 32.3789 196.587 32.3789H200.31V32.3829ZM197.763 34.0544C197.623 34.0544 197.515 34.0824 197.439 34.1384C197.363 34.1944 197.327 34.2903 197.327 34.4223V35.9099C197.327 36.1698 197.471 36.2978 197.759 36.2978H199.926C200.342 36.2978 200.67 36.2858 200.914 36.2578C201.158 36.2338 201.342 36.1818 201.462 36.1058C201.586 36.0338 201.662 35.9259 201.694 35.7819C201.726 35.642 201.746 35.454 201.746 35.2261V35.1261C201.746 34.8982 201.73 34.7102 201.694 34.5663C201.662 34.4223 201.582 34.3103 201.462 34.2384C201.338 34.1624 201.158 34.1144 200.914 34.0864C200.67 34.0584 200.338 34.0464 199.926 34.0464H197.759V34.0544H197.763Z" fill="white"/>
<defs>
<linearGradient id="paint0_linear_5570_2960" x1="19.8502" y1="-25.6915" x2="149.648" y2="49.2466" gradientUnits="userSpaceOnUse">
<stop stop-color="#7C1033"/>
<stop offset="0.54" stop-color="#C23B90"/>
<stop offset="1" stop-color="#702A8A"/>
</linearGradient>
</defs>
</svg>
