<svg width="101" height="100" viewBox="0 0 101 100" fill="none" xmlns="http://www.w3.org/2000/svg">
<path d="M75.1036 81.2866C71.0271 81.2866 67.4093 80.2166 64.2501 78.0764C61.0908 75.9363 58.594 73.0319 56.7596 69.3631C54.9252 65.6943 54.008 61.6178 54.008 57.1338C54.008 49.7962 56.4029 42.6115 61.1927 35.5796C66.0845 28.4459 72.9634 22.586 81.8297 18L98.9507 27.172C93.1418 30.0255 88.1991 33.3376 84.1227 37.1083C80.1481 40.879 77.4475 45.3121 76.0208 50.4076C80.8106 50.8153 84.6832 52.293 87.6386 54.8408C90.6959 57.2866 92.2246 60.7006 92.2246 65.0828C92.2246 69.465 90.645 73.2866 87.4857 76.5478C84.4284 79.707 80.301 81.2866 75.1036 81.2866ZM24.0462 81.2866C19.9698 81.2866 16.352 80.2166 13.1927 78.0764C10.0335 75.9363 7.53667 73.0319 5.70228 69.3631C3.86788 65.6943 2.95068 61.6178 2.95068 57.1338C2.95068 49.7962 5.34559 42.6115 10.1354 35.5796C15.0271 28.4459 21.9061 22.586 30.7723 18L47.8934 27.172C42.0844 30.0255 37.1418 33.3376 33.0653 37.1083C29.0908 40.879 26.3902 45.3121 24.9634 50.4076C29.7532 50.8153 33.6258 52.293 36.5813 54.8408C39.6386 57.2866 41.1673 60.7006 41.1673 65.0828C41.1673 69.465 39.5876 73.2866 36.4284 76.5478C33.3711 79.707 29.2437 81.2866 24.0462 81.2866Z" fill="#6350DB"/>
</svg>
